<svg version="1.1" xmlns="http://www.w3.org/2000/svg" xmlns:xlink="http://www.w3.org/1999/xlink" width="342.03294" height="284.2468" viewBox="0,0,342.03294,284.2468"><g transform="translate(-95.96706,-26.95424)"><g data-paper-data="{&quot;isPaintingLayer&quot;:true}" fill-rule="nonzero" stroke="none" stroke-width="0.5" stroke-linecap="butt" stroke-linejoin="miter" stroke-miterlimit="10" stroke-dasharray="" stroke-dashoffset="0" style="mix-blend-mode: normal"><path d="M116.37031,310.5h-2.87031c-0.97958,0 -1.82757,-0.5634 -2.23762,-1.38384c1.00683,0.25862 1.98664,0.66296 3.01578,0.80891c2.11434,0.29985 4.3407,0.00258 6.37236,0.66036c0.54155,0.17533 1.06941,0.38909 1.59268,0.61561c-1.95794,-0.19936 -3.91546,-0.42616 -5.8729,-0.70104z" fill="#87ff66"/><path d="" fill="#87ff66"/><path d="" fill="#87ff66"/><path d="M158.09822,27.08181c-0.47325,-0.11201 -0.95088,-0.16001 -1.43628,-0.10427c0.18218,0.01707 0.36449,0.03297 0.54695,0.04761c0.29627,0.02377 0.59272,0.04239 0.88933,0.05665z" fill="#e566ff"/><path d="" fill="#e566ff"/><path d="M360,55l0.5,2.5c-4.2584,0 -9.08347,0.57002 -13.30546,-0.01873c-1.3612,-0.18982 -2.63667,-0.82614 -4,-1c-2.64524,-0.33734 -5.35317,0.32465 -8,0c-1.36415,-0.16732 -2.6343,-0.84587 -4,-1c-3.39144,-0.38276 -7.25219,0.01873 -10.69454,0.01873c-11.46461,0 -23.29919,0.95095 -34.5888,-1.2343c-12.72469,-2.17806 -25.50871,-2.7657 -38.4112,-2.7657c-4.78743,0 -9.97302,-0.48932 -14.72721,-0.01493c-3.058,0.30514 -5.94517,1.66466 -9,2c-8.84884,0.97136 -18.35517,0.01493 -27.27279,0.01493c-11.44394,0 -23.43564,-0.92719 -34.83048,0.16669c-4.69982,0.45117 -9.3333,1.54517 -14.06345,1.87925c-11.03586,0.77944 -21.74216,1.73078 -32.61578,3.90551c0,0 -2.45145,0.49029 -2.94174,-1.96116c-0.49029,-2.45145 1.96116,-2.94174 1.96116,-2.94174c7.8497,-1.56994 15.39084,-2.38534 23.28409,-3.04003c7.97403,-0.66139 15.92588,-2.06208 23.90062,-2.8192c11.56173,-1.09766 23.69521,-0.18932 35.30558,-0.18932c8.73201,0 18.06505,0.96579 26.72721,0.01493c2.45478,-0.26947 6.50971,-1.74872 9,-2c4.93255,-0.49772 10.30303,-0.01493 15.27279,-0.01493c13.21094,0 26.27544,0.64748 39.30714,2.84662c14.82731,2.89574 30.08624,-0.46042 44.99832,1.17211c1.36621,0.14957 2.63667,0.82614 4,1c2.64524,0.33734 5.35317,-0.32465 8,0c1.36415,0.16732 2.64016,0.80068 4,1c3.59261,0.52659 7.73445,0.09041 11.46451,-0.00233c0.14242,-0.0164 0.23003,-0.0164 0.23003,-0.0164l0.00221,0.01107c0.33638,-0.00706 0.66921,-0.01107 0.99779,-0.01107z" fill="#de66ff"/><path d="M438,266.99998c0.00002,2.5 -2.49998,2.50002 -2.49998,2.50002l-2.09885,0.00002c-6.59458,0.00112 -13.28958,-0.3244 -19.87486,0.00675c-9.74529,0.49006 -19.23738,1.99323 -29.0263,1.99323c-33.66667,0 -67.33333,0 -101,0c-21.03457,0 -41.92733,1.51088 -62.94191,1.99932c-12.97507,0.30158 -26.00359,-0.53114 -38.96306,0.2347c-21.26268,1.25075 -42.73594,1.60479 -63.88585,3.75721c-2.67186,0.27191 -5.38502,-0.25539 -8.05696,0.01572c-1.43276,0.14538 -2.81055,0.66279 -4.22971,0.89485c0.3606,0.43329 0.57748,0.99042 0.57748,1.5982c0,1.38071 -1.11929,2.5 -2.5,2.5c-1.38071,0 -2.5,-1.11929 -2.5,-2.5c0,-0.73314 0.31558,-1.39257 0.81831,-1.84987c-0.04662,0.01524 -0.09286,0.03317 -0.13866,0.05405c-0.74126,0.33786 -0.73301,1.45504 -1.09952,2.18256c0,0 -1.38675,2.08013 -3.46688,0.69338c-2.08013,-1.38675 -0.69338,-3.46688 -0.69338,-3.46688c0.96683,-1.27248 1.48465,-3.07623 2.90048,-3.81744c1.45928,-0.76395 3.29959,-0.07366 4.9333,-0.28365c1.65208,-0.21235 3.24236,-0.81609 4.89992,-0.98028c2.69921,-0.26737 5.43962,0.25996 8.13723,-0.02312c21.17761,-2.22225 42.71379,-2.51336 64.01061,-3.76611c13.02055,-0.7625 26.10501,0.06101 39.14048,-0.24198c21.05329,-0.48935 41.98452,-2.00068 63.05809,-2.00068c33.66667,0 67.33333,0 101,0c9.70325,0 19.11279,-1.50103 28.77519,-1.98692c6.66894,-0.33536 13.44689,-0.01192 20.12513,-0.01306l2.09967,-0.00002c0,0 2.5,-0.00002 2.50002,2.49998z" fill="#87ff66"/></g></g></svg>